<?xml version="1.0" encoding="UTF-8" standalone="no"?>
<!DOCTYPE svg PUBLIC "-//W3C//DTD SVG 1.1//EN"
 "http://www.w3.org/Graphics/SVG/1.1/DTD/svg11.dtd">
<!-- Generated by graphviz version 2.26.3 (20100126.1600)
 -->
<!-- Title: _anonymous_0 Pages: 1 -->
<svg width="248pt" height="264pt"
 viewBox="0.00 0.00 248.00 264.00" xmlns="http://www.w3.org/2000/svg" xmlns:xlink="http://www.w3.org/1999/xlink">
<g id="graph1" class="graph" transform="scale(1 1) rotate(0) translate(4 260)">
<title>_anonymous_0</title>
<polygon fill="white" stroke="white" points="-4,5 -4,-260 245,-260 245,5 -4,5"/>
<g id="graph2" class="cluster"><title>cluster_visible</title>
<polygon fill="none" stroke="grey" points="8,-35 8,-221 108,-221 108,-35 8,-35"/>
<text text-anchor="middle" x="58" y="-204.4" font-family="Times Roman,serif" font-size="14.00">Visible units</text>
</g>
<g id="graph3" class="cluster"><title>cluster_hidden</title>
<polygon fill="none" stroke="grey" points="128,-8 128,-248 232,-248 232,-8 128,-8"/>
<text text-anchor="middle" x="180" y="-231.4" font-family="Times Roman,serif" font-size="14.00">Hidden units</text>
</g>
<!-- v1 -->
<g id="node2" class="node"><title>v1</title>
<ellipse fill="red" stroke="red" cx="58" cy="-115" rx="27" ry="18.3848"/>
<text text-anchor="middle" x="58" y="-111.4" font-family="Times Roman,serif" font-size="14.00" fill="red">v1</text>
</g>
<!-- v2 -->
<g id="node3" class="node"><title>v2</title>
<ellipse fill="red" stroke="red" cx="58" cy="-61" rx="27" ry="18.3848"/>
<text text-anchor="middle" x="58" y="-57.4" font-family="Times Roman,serif" font-size="14.00" fill="red">v2</text>
</g>
<!-- v3 -->
<g id="node4" class="node"><title>v3</title>
<ellipse fill="red" stroke="red" cx="58" cy="-169" rx="27" ry="18.3848"/>
<text text-anchor="middle" x="58" y="-165.4" font-family="Times Roman,serif" font-size="14.00" fill="red">v3</text>
</g>
<!-- h3 -->
<g id="node6" class="node"><title>h3</title>
<ellipse fill="lightblue" stroke="lightblue" cx="180" cy="-196" rx="27" ry="18.3848"/>
<text text-anchor="middle" x="180" y="-192.4" font-family="Times Roman,serif" font-size="14.00" fill="lightblue">h3</text>
</g>
<!-- h3&#45;&#45;v1 -->
<g id="edge16" class="edge"><title>h3&#45;&#45;v1</title>
<path fill="none" stroke="black" d="M160.669,-183.165C137.825,-167.998 100.046,-142.915 77.2408,-127.775"/>
</g>
<!-- h3&#45;&#45;v2 -->
<g id="edge18" class="edge"><title>h3&#45;&#45;v2</title>
<path fill="none" stroke="black" d="M166.005,-180.514C142.597,-154.611 95.7567,-102.78 72.2075,-76.7214"/>
</g>
<!-- h3&#45;&#45;v3 -->
<g id="edge20" class="edge"><title>h3&#45;&#45;v3</title>
<path fill="none" stroke="black" d="M154.127,-190.274C133.423,-185.692 104.53,-179.298 83.8358,-174.718"/>
</g>
<!-- h4 -->
<g id="node7" class="node"><title>h4</title>
<ellipse fill="lightblue" stroke="lightblue" cx="180" cy="-142" rx="27" ry="18.3848"/>
<text text-anchor="middle" x="180" y="-138.4" font-family="Times Roman,serif" font-size="14.00" fill="lightblue">h4</text>
</g>
<!-- h4&#45;&#45;v1 -->
<g id="edge22" class="edge"><title>h4&#45;&#45;v1</title>
<path fill="none" stroke="black" d="M154.127,-136.274C133.423,-131.692 104.53,-125.298 83.8358,-120.718"/>
</g>
<!-- h4&#45;&#45;v2 -->
<g id="edge24" class="edge"><title>h4&#45;&#45;v2</title>
<path fill="none" stroke="black" d="M160.669,-129.165C137.825,-113.998 100.046,-88.9155 77.2408,-73.7746"/>
</g>
<!-- h4&#45;&#45;v3 -->
<g id="edge26" class="edge"><title>h4&#45;&#45;v3</title>
<path fill="none" stroke="black" d="M154.127,-147.726C133.423,-152.308 104.53,-158.702 83.8358,-163.282"/>
</g>
<!-- h1 -->
<g id="node8" class="node"><title>h1</title>
<ellipse fill="lightblue" stroke="lightblue" cx="180" cy="-88" rx="27" ry="18.3848"/>
<text text-anchor="middle" x="180" y="-84.4" font-family="Times Roman,serif" font-size="14.00" fill="lightblue">h1</text>
</g>
<!-- h1&#45;&#45;v1 -->
<g id="edge4" class="edge"><title>h1&#45;&#45;v1</title>
<path fill="none" stroke="black" d="M154.127,-93.726C133.423,-98.308 104.53,-104.702 83.8358,-109.282"/>
</g>
<!-- h1&#45;&#45;v2 -->
<g id="edge6" class="edge"><title>h1&#45;&#45;v2</title>
<path fill="none" stroke="black" d="M154.127,-82.274C133.423,-77.692 104.53,-71.2976 83.8358,-66.7178"/>
</g>
<!-- h1&#45;&#45;v3 -->
<g id="edge8" class="edge"><title>h1&#45;&#45;v3</title>
<path fill="none" stroke="black" d="M160.669,-100.835C137.825,-116.002 100.046,-141.085 77.2408,-156.225"/>
</g>
<!-- h2 -->
<g id="node9" class="node"><title>h2</title>
<ellipse fill="lightblue" stroke="lightblue" cx="180" cy="-34" rx="27" ry="18.3848"/>
<text text-anchor="middle" x="180" y="-30.4" font-family="Times Roman,serif" font-size="14.00" fill="lightblue">h2</text>
</g>
<!-- h2&#45;&#45;v1 -->
<g id="edge10" class="edge"><title>h2&#45;&#45;v1</title>
<path fill="none" stroke="black" d="M160.669,-46.8347C137.825,-62.0017 100.046,-87.0845 77.2408,-102.225"/>
</g>
<!-- h2&#45;&#45;v2 -->
<g id="edge12" class="edge"><title>h2&#45;&#45;v2</title>
<path fill="none" stroke="black" d="M154.127,-39.726C133.423,-44.308 104.53,-50.7024 83.8358,-55.2822"/>
</g>
<!-- h2&#45;&#45;v3 -->
<g id="edge14" class="edge"><title>h2&#45;&#45;v3</title>
<path fill="none" stroke="black" d="M166.005,-49.4862C142.597,-75.3887 95.7567,-127.22 72.2075,-153.279"/>
</g>
</g>
</svg>
